            <svg viewBox="0 0 400 190" xmlns="http://www.w3.org/2000/svg" preserveAspectRatio="xMidYMid slice">
              <defs>
                <linearGradient id="d_ssky" x1="0" y1="0" x2="0" y2="1">
                  <stop offset="0" stop-color="#04060f"/><stop offset="1" stop-color="#0a1524"/>
                </linearGradient>
                <radialGradient id="d_earth" cx="0.35" cy="0.3" r="0.9">
                  <stop offset="0" stop-color="#3d6fa8"/><stop offset="0.6" stop-color="#1d3a63"/><stop offset="1" stop-color="#0c1930"/>
                </radialGradient>
                <linearGradient id="d_burn" x1="0" y1="0" x2="1" y2="0">
                  <stop offset="0" stop-color="rgba(255,140,70,0)"/><stop offset="1" stop-color="rgba(255,140,70,0.75)"/>
                </linearGradient>
              </defs>
              <rect width="400" height="190" fill="url(#d_ssky)"/>
              <circle cx="200" cy="330" r="190" fill="url(#d_earth)"/>
              <path d="M60 240 Q200 180 340 240" stroke="rgba(143,240,234,0.35)" stroke-width="2" fill="none"/>
              <g class="bob">
                <g class="ringspin">
                  <ellipse cx="200" cy="88" rx="86" ry="26" fill="none" stroke="#3a4f66" stroke-width="7"/>
                  <ellipse cx="200" cy="88" rx="86" ry="26" fill="none" stroke="#4fd8d0" stroke-width="1.5" opacity="0.6"/>
                </g>
                <circle cx="200" cy="88" r="30" fill="#16222f" stroke="#3a4f66" stroke-width="4"/>
                <circle cx="200" cy="88" r="30" fill="none" stroke="rgba(79,216,208,0.4)" stroke-width="1.5"/>
                <rect x="168" y="52" width="12" height="6" rx="2" fill="#4fd8d0" opacity="0.8"/>
                <rect x="222" y="116" width="12" height="6" rx="2" fill="#ffb45e" opacity="0.9"/>
                <circle cx="200" cy="88" r="7" fill="#8ff0ea" opacity="0.9"/>
                <path d="M120 150 L260 128" stroke="url(#d_burn)" stroke-width="4" stroke-linecap="round"/>
              </g>
              <circle cx="60" cy="30" r="1.6" fill="#fff" opacity="0.8"/>
              <circle cx="340" cy="22" r="1.3" fill="#fff" opacity="0.6"/>
              <circle cx="300" cy="60" r="1" fill="#fff" opacity="0.5"/>
              <circle cx="100" cy="70" r="1.2" fill="#fff" opacity="0.55"/>
            </svg>
