            <svg viewBox="0 0 400 160" xmlns="http://www.w3.org/2000/svg" preserveAspectRatio="xMidYMid slice">
              <defs>
                <linearGradient id="d_grp1" x1="0" y1="0" x2="0" y2="1"><stop offset="0" stop-color="#2a1207"/><stop offset="1" stop-color="#160b05"/></linearGradient>
                <radialGradient id="d_grpG" cx="0.5" cy="0.55" r="0.6"><stop offset="0" stop-color="rgba(255,138,42,0.5)"/><stop offset="1" stop-color="transparent"/></radialGradient>
              </defs>
              <rect width="400" height="160" fill="url(#d_grp1)"/>
              <ellipse cx="200" cy="140" rx="190" ry="48" fill="url(#d_grpG)"/>
              <!-- vault -->
              <g class="ringspin" style="transform-origin:200px 78px">
                <circle cx="200" cy="78" r="40" fill="none" stroke="#ffb765" stroke-width="5"/>
                <path d="M200 38 v14 M200 104 v14 M160 78 h14 M226 78 h14 M172 50 l10 10 M228 106 l-10 -10 M228 50 l-10 10 M172 106 l10 -10" stroke="#ff9a3d" stroke-width="4" stroke-linecap="round"/>
              </g>
              <circle cx="200" cy="78" r="12" fill="#ff7a18"/>
              <!-- four figures around it -->
              <g fill="none" stroke="#ff9a3d" stroke-width="3.5" stroke-linecap="round">
                <circle cx="70" cy="86" r="12"/><path d="M70 98 v22 M70 106 l-13 8 M70 106 l13 8"/>
                <circle cx="120" cy="122" r="10"/><path d="M120 132 v16"/>
                <circle cx="330" cy="86" r="12"/><path d="M330 98 v22 M330 106 l-13 8 M330 106 l13 8"/>
                <circle cx="280" cy="122" r="10"/><path d="M280 132 v16"/>
              </g>
              <circle class="drift" cx="150" cy="40" r="3.5" fill="#ffe0b0" opacity="0.7"/>
              <circle class="drift" cx="260" cy="52" r="3" fill="#ffe0b0" opacity="0.6" style="animation-delay:-3s"/>
            </svg>
